<?xml version="1.0" encoding="UTF-8"?>
<svg version="1.1" xmlns="http://www.w3.org/2000/svg" width="256" height="256">
<path d="M0 0 C0.7064923 -0.00523668 1.41298461 -0.01047336 2.14088577 -0.01586872 C4.49656475 -0.03081089 6.85202539 -0.0315726 9.20774841 -0.03224182 C10.90180831 -0.03986746 12.59586475 -0.04829565 14.28991699 -0.0574646 C18.88533605 -0.07938263 23.48068857 -0.08820543 28.07615399 -0.09329104 C30.95176747 -0.09693924 33.82736364 -0.10318186 36.7029705 -0.11029243 C46.7485162 -0.13478216 56.79401034 -0.14783681 66.83958435 -0.15138245 C76.18039854 -0.15501246 85.52088309 -0.18487071 94.86159664 -0.22678703 C102.89753444 -0.26157446 110.9333635 -0.27693238 118.96937603 -0.27762848 C123.76140494 -0.27841872 128.55309827 -0.28703981 133.3450489 -0.31562614 C137.8588046 -0.34195048 142.37194998 -0.34393259 146.88574791 -0.3279705 C148.53317734 -0.32616709 150.18064301 -0.33274548 151.8279953 -0.34878922 C168.64181204 -0.50242281 181.46335536 4.36096566 193.88523865 15.77415466 C202.2915957 24.41620397 207.98975582 36.4130008 208.03439331 48.51391602 C208.03962999 49.22040832 208.04486667 49.92690062 208.05026203 50.65480179 C208.0652042 53.01048076 208.06596591 55.36594141 208.06663513 57.72166443 C208.07426077 59.41572432 208.08268896 61.10978076 208.09185791 62.80383301 C208.11377594 67.39925207 208.12259874 71.99460459 208.12768435 76.59007001 C208.13133255 79.46568348 208.13757517 82.34127966 208.14468575 85.21688652 C208.16917547 95.26243222 208.18223012 105.30792635 208.18577576 115.35350037 C208.18940577 124.69431455 208.21926402 134.03479911 208.26118034 143.37551266 C208.29596777 151.41145046 208.31132569 159.44727952 208.31202179 167.48329204 C208.31281203 172.27532096 208.32143312 177.06701428 208.35001945 181.85896492 C208.37634379 186.37272061 208.3783259 190.885866 208.36236382 195.39966393 C208.3605604 197.04709335 208.36713879 198.69455903 208.38318253 200.34191132 C208.53681612 217.15572806 203.67342765 229.97727138 192.26023865 242.39915466 C183.61818934 250.80551171 171.62139251 256.50367184 159.52047729 256.54830933 C158.81398499 256.553546 158.10749269 256.55878268 157.37959152 256.56417805 C155.02391255 256.57912021 152.6684519 256.57988193 150.31272888 256.58055115 C148.61866899 256.58817678 146.92461255 256.59660498 145.2305603 256.60577393 C140.63514124 256.62769196 136.03978872 256.63651475 131.4443233 256.64160037 C128.56870983 256.64524857 125.69311365 256.65149119 122.81750679 256.65860176 C112.77196109 256.68309149 102.72646696 256.69614614 92.68089294 256.69969177 C83.34007876 256.70332178 73.99959421 256.73318003 64.65888065 256.77509636 C56.62294285 256.80988379 48.58711379 256.82524171 40.55110127 256.82593781 C35.75907235 256.82672805 30.96737903 256.83534913 26.17542839 256.86393547 C21.6616727 256.8902598 17.14852731 256.89224192 12.63472939 256.87627983 C10.98729996 256.87447642 9.33983428 256.88105481 7.69248199 256.89709854 C-9.12133475 257.05073214 -21.94287807 252.18734367 -34.36476135 240.77415466 C-42.7711184 232.13210536 -48.46927853 220.13530852 -48.51391602 208.03439331 C-48.51915269 207.32790101 -48.52438937 206.6214087 -48.52978474 205.89350754 C-48.5447269 203.53782856 -48.54548862 201.18236792 -48.54615784 198.8266449 C-48.55378347 197.132585 -48.56221167 195.43852856 -48.57138062 193.74447632 C-48.59329865 189.14905726 -48.60212144 184.55370474 -48.60720706 179.95823932 C-48.61085526 177.08262585 -48.61709788 174.20702967 -48.62420845 171.33142281 C-48.64869818 161.28587711 -48.66175283 151.24038297 -48.66529846 141.19480896 C-48.66892847 131.85399477 -48.69878672 122.51351022 -48.74070305 113.17279667 C-48.77549048 105.13685887 -48.7908484 97.10102981 -48.7915445 89.06501728 C-48.79233474 84.27298837 -48.80095582 79.48129504 -48.82954216 74.68934441 C-48.85586649 70.17558872 -48.85784861 65.66244333 -48.84188652 61.1486454 C-48.84008311 59.50121598 -48.8466615 57.8537503 -48.86270523 56.20639801 C-49.01633883 39.39258127 -44.15295035 26.57103795 -32.73976135 14.14915466 C-24.09771205 5.74279761 -12.10091521 0.04463749 0 0 Z " fill="#3ACE01" transform="translate(48.23976135253906,-0.2741546630859375)"/>
<path d="M0 0 C12.97818921 11.50062783 23.01681081 27.95143444 24.50805664 45.45825195 C24.96944078 63.57259435 18.69682985 81.99869864 6.26977539 95.37231445 C-0.29630581 102.18004329 -7.34624087 108.26352589 -14.77709961 114.1105957 C-15.89618399 115.02886176 -17.01326879 115.94956847 -18.12866211 116.87231445 C-58.01181785 149.67671219 -58.01181785 149.67671219 -74.77709961 151.4230957 C-76.77709961 151.1105957 -76.77709961 151.1105957 -77.77709961 150.1105957 C-78.01239373 142.81647806 -78.01239373 142.81647806 -76.77709961 139.1105957 C-76.54454935 136.92625861 -76.54454935 136.92625861 -76.52709961 134.6105957 C-76.50131836 133.8371582 -76.47553711 133.0637207 -76.44897461 132.2668457 C-76.62134338 130.07862519 -76.62134338 130.07862519 -77.91772461 128.4543457 C-82.01809304 125.49105423 -86.67415437 124.90174564 -91.58959961 124.3605957 C-114.27326931 120.98382215 -137.01811911 108.39025569 -150.92944336 89.98950195 C-161.6533529 73.28015453 -166.97262288 54.8067537 -162.77709961 34.9855957 C-158.86607593 21.76778421 -151.51112514 11.59251697 -141.77709961 2.1105957 C-141.03588867 1.37196289 -140.29467773 0.63333008 -139.53100586 -0.12768555 C-102.56214605 -35.06156225 -37.58043911 -31.85367339 0 0 Z " fill="#FDFEFC" transform="translate(197.777099609375,66.889404296875)"/>
<path d="M0 0 C9.08482594 1.7141181 16.12370776 16.41886539 21.3125 23.625 C21.33231934 23.03485107 21.35213867 22.44470215 21.37255859 21.83666992 C21.46784659 19.16149904 21.57750939 16.48710502 21.6875 13.8125 C21.73390625 12.4193457 21.73390625 12.4193457 21.78125 10.99804688 C21.81992188 10.10537109 21.85859375 9.21269531 21.8984375 8.29296875 C21.9298584 7.47078857 21.9612793 6.6486084 21.99365234 5.80151367 C22.3125 3.625 22.3125 3.625 24.3125 0.625 C27.8125 0.25 27.8125 0.25 31.3125 0.625 C33.90175159 4.50887739 33.63627642 7.8004932 33.6484375 12.30859375 C33.6550943 13.16050797 33.6617511 14.01242218 33.66860962 14.89015198 C33.67873202 16.69147584 33.68342677 18.49283718 33.68310547 20.29418945 C33.68747852 23.04896853 33.72380042 25.80214508 33.76171875 28.55664062 C33.76758705 30.30728619 33.77155635 32.05793936 33.7734375 33.80859375 C33.78780853 34.63161484 33.80217957 35.45463593 33.81698608 36.30259705 C33.78710883 40.04534719 33.68896372 42.05173626 31.59619141 45.23852539 C29.3125 46.625 29.3125 46.625 26.77783203 46.63208008 C23.76470571 45.40122782 22.73814818 44.15718697 20.8671875 41.51171875 C20.26519531 40.67576172 19.66320312 39.83980469 19.04296875 38.97851562 C18.12451172 37.65883789 18.12451172 37.65883789 17.1875 36.3125 C16.56746094 35.44431641 15.94742188 34.57613281 15.30859375 33.68164062 C14.15222485 32.06148076 13.00166104 30.43715029 11.85888672 28.80737305 C10.8146371 27.33365228 9.73127998 25.88698924 8.61376953 24.46801758 C7.3125 22.625 7.3125 22.625 7.3125 20.625 C6.6525 20.625 5.9925 20.625 5.3125 20.625 C5.32297363 21.31126465 5.33344727 21.9975293 5.34423828 22.70458984 C5.38571874 25.80302289 5.41180069 28.90139761 5.4375 32 C5.45425781 33.08023438 5.47101563 34.16046875 5.48828125 35.2734375 C5.49472656 36.3046875 5.50117188 37.3359375 5.5078125 38.3984375 C5.51828613 39.35153809 5.52875977 40.30463867 5.53955078 41.28662109 C5.3125 43.625 5.3125 43.625 3.3125 45.625 C0.3125 45.875 0.3125 45.875 -2.6875 45.625 C-5.37710183 42.93539817 -4.93709163 40.85392482 -4.96539307 37.1986084 C-4.9613446 36.31838013 -4.95729614 35.43815186 -4.953125 34.53125 C-4.95503845 33.6287854 -4.9569519 32.7263208 -4.95892334 31.79650879 C-4.96028559 29.88663454 -4.95658638 27.97675104 -4.94824219 26.06689453 C-4.93754321 23.1368335 -4.94813611 20.20738562 -4.9609375 17.27734375 C-4.95961591 15.42447781 -4.95705353 13.57161225 -4.953125 11.71875 C-4.95717346 10.83852173 -4.96122192 9.95829346 -4.96539307 9.0513916 C-4.90414264 1.14049829 -4.90414264 1.14049829 0 0 Z " fill="#40CF0A" transform="translate(122.6875,95.375)"/>
<path d="M0 0 C1.16660156 0.00322266 2.33320313 0.00644531 3.53515625 0.00976562 C4.70175781 -0.00634766 5.86835938 -0.02246094 7.0703125 -0.0390625 C8.73900391 -0.0400293 8.73900391 -0.0400293 10.44140625 -0.04101562 C11.46556641 -0.04399658 12.48972656 -0.04697754 13.54492188 -0.05004883 C14.36669922 0.07281494 15.18847656 0.19567871 16.03515625 0.32226562 C18.03515625 3.32226562 18.03515625 3.32226562 17.78515625 5.88476562 C17.03515625 8.32226562 17.03515625 8.32226562 15.03515625 10.32226562 C12.29030032 10.46734258 9.65035082 10.50878986 6.91015625 10.44726562 C6.15605469 10.43824219 5.40195313 10.42921875 4.625 10.41992188 C2.76158371 10.39633433 0.89833032 10.36046282 -0.96484375 10.32226562 C-0.96484375 12.96226563 -0.96484375 15.60226563 -0.96484375 18.32226562 C0.85853516 18.30486328 0.85853516 18.30486328 2.71875 18.28710938 C4.30338389 18.27773284 5.88801943 18.2686325 7.47265625 18.25976562 C8.27509766 18.25138672 9.07753906 18.24300781 9.90429688 18.234375 C11.94810846 18.22575132 13.99199527 18.26998413 16.03515625 18.32226562 C17.03515625 19.32226562 17.03515625 19.32226562 17.22265625 22.75976562 C17.03515625 26.32226562 17.03515625 26.32226562 15.03515625 28.32226562 C12.29030032 28.46734258 9.65035082 28.50878986 6.91015625 28.44726562 C6.15605469 28.43824219 5.40195313 28.42921875 4.625 28.41992188 C2.76158371 28.39633433 0.89833032 28.36046282 -0.96484375 28.32226562 C-0.96484375 30.63226563 -0.96484375 32.94226563 -0.96484375 35.32226562 C0.60716797 35.28746094 0.60716797 35.28746094 2.2109375 35.25195312 C3.58983662 35.23319259 4.96874345 35.21499269 6.34765625 35.19726562 C7.03794922 35.18050781 7.72824219 35.16375 8.43945312 35.14648438 C12.20651021 35.11008769 13.81947329 35.17847699 17.03515625 37.32226562 C17.34765625 40.82226562 17.34765625 40.82226562 17.03515625 44.32226562 C13.99412059 47.36330128 10.98674539 46.6155741 6.83007812 46.64453125 C5.76337891 46.64130859 4.69667969 46.63808594 3.59765625 46.63476562 C2.53482422 46.65087891 1.47199219 46.66699219 0.37695312 46.68359375 C-1.15155273 46.68456055 -1.15155273 46.68456055 -2.7109375 46.68554688 C-3.64607178 46.68852783 -4.58120605 46.69150879 -5.54467773 46.69458008 C-8.46263015 46.24568697 -9.15701876 45.60345944 -10.96484375 43.32226562 C-11.33906555 41.41844177 -11.33906555 41.41844177 -11.3371582 39.24975586 C-11.34338699 38.43558701 -11.34961578 37.62141815 -11.35603333 36.78257751 C-11.34682358 35.90751053 -11.33761383 35.03244354 -11.328125 34.13085938 C-11.3286235 33.22980972 -11.32912201 32.32876007 -11.32963562 31.40040588 C-11.32729573 29.49648838 -11.3175722 27.59256774 -11.30102539 25.6887207 C-11.27740597 22.76746107 -11.28046831 19.84711225 -11.28710938 16.92578125 C-11.28153357 15.07746849 -11.27442431 13.22915959 -11.265625 11.38085938 C-11.26653641 10.50376816 -11.26744781 9.62667694 -11.26838684 8.7230072 C-11.16096226 -0.4170488 -8.1389578 0.05187053 0 0 Z " fill="#3ECF09" transform="translate(172.96484375,95.677734375)"/>
<path d="M0 0 C3.5 -0.375 3.5 -0.375 7 0 C9.39629455 3.59444183 9.25781331 6.14861652 9.1953125 10.29296875 C9.1924826 10.99899734 9.18965271 11.70502594 9.18673706 12.43244934 C9.17555464 14.68430633 9.1504542 16.93576352 9.125 19.1875 C9.11496767 20.71548904 9.10584226 22.24348433 9.09765625 23.77148438 C9.07562172 27.51447663 9.04110567 31.25717056 9 35 C10.04800781 34.96519531 11.09601563 34.93039063 12.17578125 34.89453125 C13.55467147 34.86639063 14.93357902 34.83909076 16.3125 34.8125 C17.00279297 34.78736328 17.69308594 34.76222656 18.40429688 34.73632812 C23.51242349 34.6622973 23.51242349 34.6622973 25.95703125 36.35546875 C27.45708786 38.72072654 27.41145137 40.25699085 27 43 C25.32270496 45.28233886 24.41678804 45.92995692 21.59570312 46.40405273 C18.56289881 46.4358856 15.5329776 46.45781836 12.5 46.4375 C10.91251953 46.4674707 10.91251953 46.4674707 9.29296875 46.49804688 C7.77123047 46.49708008 7.77123047 46.49708008 6.21875 46.49609375 C5.28998047 46.49794678 4.36121094 46.4997998 3.40429688 46.50170898 C1 46 1 46 -0.8034668 44.52001953 C-2.58705392 40.76360527 -2.40925494 37.29199273 -2.36328125 33.18359375 C-2.36377975 32.33072281 -2.36427826 31.47785187 -2.36479187 30.59913635 C-2.3624551 28.79954697 -2.35274998 26.99995408 -2.33618164 25.20043945 C-2.31255466 22.44387664 -2.31562786 19.68827921 -2.32226562 16.93164062 C-2.31668975 15.18228589 -2.30958043 13.43293524 -2.30078125 11.68359375 C-2.30169266 10.85854843 -2.30260406 10.03350311 -2.30354309 9.18345642 C-2.2551177 5.28346007 -2.2114442 3.31716631 0 0 Z " fill="#45D013" transform="translate(70,96)"/>
<path d="M0 0 C3 0.25 3 0.25 5 2.25 C5.20014153 5.31178773 5.27971072 8.28119292 5.265625 11.34375 C5.26753845 12.2462146 5.2694519 13.1486792 5.27142334 14.07849121 C5.27278559 15.98836546 5.26908638 17.89824896 5.26074219 19.80810547 C5.25004321 22.7381665 5.26063611 25.66761438 5.2734375 28.59765625 C5.27211591 30.45052219 5.26955353 32.30338775 5.265625 34.15625 C5.26967346 35.03647827 5.27372192 35.91670654 5.27789307 36.8236084 C5.2299166 43.0200834 5.2299166 43.0200834 3 45.25 C0 45.5 0 45.5 -3 45.25 C-5.68960183 42.56039817 -5.24959163 40.47892482 -5.27789307 36.8236084 C-5.2738446 35.94338013 -5.26979614 35.06315186 -5.265625 34.15625 C-5.26753845 33.2537854 -5.2694519 32.3513208 -5.27142334 31.42150879 C-5.27278559 29.51163454 -5.26908638 27.60175104 -5.26074219 25.69189453 C-5.25004321 22.7618335 -5.26063611 19.83238562 -5.2734375 16.90234375 C-5.27211591 15.04947781 -5.26955353 13.19661225 -5.265625 11.34375 C-5.26967346 10.46352173 -5.27372192 9.58329346 -5.27789307 8.6763916 C-5.21407993 0.43450666 -5.21407993 0.43450666 0 0 Z " fill="#3BCE04" transform="translate(106,95.75)"/>
<path d="M0 0 C2 1 2 1 2 1 Z " fill="#2AD400" transform="translate(219,255)"/>
<path d="M0 0 C2 1 2 1 2 1 Z " fill="#2AD400" transform="translate(35,255)"/>
<path d="M0 0 C2 1 2 1 2 1 Z " fill="#2AD400" transform="translate(222,254)"/>
<path d="M0 0 C2 1 2 1 2 1 Z " fill="#2AD400" transform="translate(32,254)"/>
<path d="M0 0 C2 1 2 1 2 1 Z " fill="#00FF00" transform="translate(224,253)"/>
<path d="M0 0 C2 1 2 1 2 1 Z " fill="#00FF00" transform="translate(30,253)"/>
<path d="M0 0 C2 1 2 1 2 1 Z " fill="#00FF00" transform="translate(226,252)"/>
<path d="M0 0 C2 1 2 1 2 1 Z " fill="#00FF00" transform="translate(28,252)"/>
<path d="M0 0 C2 1 2 1 2 1 Z " fill="#00FF00" transform="translate(228,251)"/>
<path d="M0 0 C2 1 2 1 2 1 Z " fill="#00FF00" transform="translate(26,251)"/>
<path d="M0 0 C2 1 2 1 2 1 Z " fill="#2AD400" transform="translate(230,250)"/>
<path d="M0 0 C2 1 2 1 2 1 Z " fill="#2AD400" transform="translate(233,248)"/>
<path d="M0 0 C2 1 2 1 2 1 Z " fill="#2AD400" transform="translate(21,248)"/>
<path d="M0 0 C2 1 2 1 2 1 Z " fill="#00FF00" transform="translate(238,244)"/>
<path d="M0 0 C2 1 2 1 2 1 Z " fill="#00FF00" transform="translate(16,244)"/>
<path d="" fill="#00FF00" transform="translate(0,0)"/>
<path d="" fill="#00FF00" transform="translate(0,0)"/>
<path d="" fill="#2AD400" transform="translate(0,0)"/>
<path d="" fill="#2AD400" transform="translate(0,0)"/>
<path d="" fill="#2AD400" transform="translate(0,0)"/>
<path d="" fill="#2AD400" transform="translate(0,0)"/>
<path d="" fill="#00FF00" transform="translate(0,0)"/>
<path d="" fill="#00FF00" transform="translate(0,0)"/>
<path d="" fill="#00FF00" transform="translate(0,0)"/>
<path d="" fill="#00FF00" transform="translate(0,0)"/>
<path d="" fill="#00FF00" transform="translate(0,0)"/>
<path d="" fill="#2AD400" transform="translate(0,0)"/>
<path d="" fill="#2AD400" transform="translate(0,0)"/>
<path d="" fill="#2AD400" transform="translate(0,0)"/>
<path d="" fill="#2AD400" transform="translate(0,0)"/>
<path d="" fill="#2AD400" transform="translate(0,0)"/>
<path d="" fill="#2AD400" transform="translate(0,0)"/>
<path d="" fill="#2AD400" transform="translate(0,0)"/>
<path d="" fill="#2AD400" transform="translate(0,0)"/>
<path d="" fill="#2AD400" transform="translate(0,0)"/>
<path d="" fill="#00FF00" transform="translate(0,0)"/>
<path d="" fill="#2AD400" transform="translate(0,0)"/>
<path d="" fill="#00FF00" transform="translate(0,0)"/>
<path d="" fill="#00FF00" transform="translate(0,0)"/>
<path d="" fill="#00FF00" transform="translate(0,0)"/>
<path d="" fill="#00FF00" transform="translate(0,0)"/>
<path d="" fill="#2AD400" transform="translate(0,0)"/>
<path d="" fill="#2AD400" transform="translate(0,0)"/>
<path d="" fill="#2AD400" transform="translate(0,0)"/>
<path d="" fill="#2AD400" transform="translate(0,0)"/>
<path d="" fill="#00FF00" transform="translate(0,0)"/>
<path d="" fill="#00FF00" transform="translate(0,0)"/>
<path d="M0 0 C2 1 2 1 2 1 Z " fill="#00FF00" transform="translate(238,11)"/>
<path d="M0 0 C2 1 2 1 2 1 Z " fill="#00FF00" transform="translate(16,11)"/>
<path d="M0 0 C2 1 2 1 2 1 Z " fill="#2AD400" transform="translate(233,7)"/>
<path d="M0 0 C2 1 2 1 2 1 Z " fill="#2AD400" transform="translate(21,7)"/>
<path d="M0 0 C2 1 2 1 2 1 Z " fill="#2AD400" transform="translate(230,5)"/>
<path d="M0 0 C2 1 2 1 2 1 Z " fill="#2AD400" transform="translate(24,5)"/>
<path d="M0 0 C2 1 2 1 2 1 Z " fill="#00FF00" transform="translate(228,4)"/>
<path d="M0 0 C2 1 2 1 2 1 Z " fill="#00FF00" transform="translate(26,4)"/>
<path d="M0 0 C2 1 2 1 2 1 Z " fill="#00FF00" transform="translate(226,3)"/>
<path d="M0 0 C2 1 2 1 2 1 Z " fill="#00FF00" transform="translate(28,3)"/>
<path d="M0 0 C2 1 2 1 2 1 Z " fill="#00FF00" transform="translate(224,2)"/>
<path d="M0 0 C2 1 2 1 2 1 Z " fill="#00FF00" transform="translate(30,2)"/>
<path d="M0 0 C2 1 2 1 2 1 Z " fill="#2AD400" transform="translate(222,1)"/>
<path d="M0 0 C2 1 2 1 2 1 Z " fill="#2AD400" transform="translate(32,1)"/>
<path d="M0 0 C2 1 2 1 2 1 Z " fill="#2AD400" transform="translate(219,0)"/>
<path d="M0 0 C2 1 2 1 2 1 Z " fill="#2AD400" transform="translate(35,0)"/>
<path d="" fill="#55AA00" transform="translate(0,0)"/>
<path d="" fill="#55AA00" transform="translate(0,0)"/>
<path d="" fill="#55AA00" transform="translate(0,0)"/>
<path d="" fill="#00FF00" transform="translate(0,0)"/>
<path d="" fill="#00FF00" transform="translate(0,0)"/>
<path d="" fill="#40BF00" transform="translate(0,0)"/>
<path d="" fill="#40BF00" transform="translate(0,0)"/>
<path d="" fill="#55AA00" transform="translate(0,0)"/>
<path d="" fill="#55AA00" transform="translate(0,0)"/>
<path d="" fill="#00FF00" transform="translate(0,0)"/>
<path d="" fill="#00FF00" transform="translate(0,0)"/>
<path d="" fill="#00FF00" transform="translate(0,0)"/>
<path d="" fill="#00FF00" transform="translate(0,0)"/>
<path d="" fill="#00FF00" transform="translate(0,0)"/>
<path d="" fill="#00FF00" transform="translate(0,0)"/>
<path d="" fill="#00FF00" transform="translate(0,0)"/>
<path d="" fill="#00FF00" transform="translate(0,0)"/>
<path d="" fill="#55AA00" transform="translate(0,0)"/>
<path d="" fill="#55AA00" transform="translate(0,0)"/>
<path d="" fill="#40BF00" transform="translate(0,0)"/>
<path d="" fill="#40BF00" transform="translate(0,0)"/>
<path d="" fill="#00FF00" transform="translate(0,0)"/>
<path d="" fill="#00FF00" transform="translate(0,0)"/>
<path d="" fill="#55AA00" transform="translate(0,0)"/>
<path d="" fill="#55AA00" transform="translate(0,0)"/>
<path d="" fill="#55AA00" transform="translate(0,0)"/>
<path d="" fill="#55AA00" transform="translate(0,0)"/>
<path d="" fill="#00FF00" transform="translate(0,0)"/>
<path d="" fill="#00FF00" transform="translate(0,0)"/>
<path d="" fill="#40BF00" transform="translate(0,0)"/>
<path d="" fill="#40BF00" transform="translate(0,0)"/>
<path d="" fill="#55AA00" transform="translate(0,0)"/>
<path d="" fill="#55AA00" transform="translate(0,0)"/>
<path d="" fill="#00FF00" transform="translate(0,0)"/>
<path d="" fill="#00FF00" transform="translate(0,0)"/>
<path d="" fill="#00FF00" transform="translate(0,0)"/>
<path d="" fill="#00FF00" transform="translate(0,0)"/>
<path d="" fill="#00FF00" transform="translate(0,0)"/>
<path d="" fill="#00FF00" transform="translate(0,0)"/>
<path d="" fill="#00FF00" transform="translate(0,0)"/>
<path d="" fill="#00FF00" transform="translate(0,0)"/>
<path d="" fill="#55AA00" transform="translate(0,0)"/>
<path d="" fill="#55AA00" transform="translate(0,0)"/>
<path d="" fill="#40BF00" transform="translate(0,0)"/>
<path d="" fill="#40BF00" transform="translate(0,0)"/>
<path d="" fill="#00FF00" transform="translate(0,0)"/>
<path d="" fill="#00FF00" transform="translate(0,0)"/>
<path d="" fill="#55AA00" transform="translate(0,0)"/>
<path d="" fill="#55AA00" transform="translate(0,0)"/>
</svg>
